HIERARCHY
ROOT Hips
{
	OFFSET -0.001795 -0.223333 0.028219
	CHANNELS 6 Xposition Yposition Zposition Zrotation Yrotation Xrotation 
	JOINT LeftUpLeg
	{
		OFFSET 0.069520 -0.091406 -0.006815
		CHANNELS 3 Zrotation Yrotation Xrotation
		JOINT LeftLeg
		{
			OFFSET 0.034277 -0.375199 -0.004496
			CHANNELS 3 Zrotation Yrotation Xrotation
			JOINT LeftFoot
			{
				OFFSET -0.013596 -0.397961 -0.043693
				CHANNELS 3 Zrotation Yrotation Xrotation
				JOINT LeftToe
				{
					OFFSET 0.026358 -0.055791 0.119288
					CHANNELS 3 Zrotation Yrotation Xrotation
					End Site
					{
						OFFSET 0.000000 0.000000 0.000000
					}
				}
			}
		}
	}
	JOINT RightUpLeg
	{
		OFFSET -0.067670 -0.090522 -0.004320
		CHANNELS 3 Zrotation Yrotation Xrotation
		JOINT RightLeg
		{
			OFFSET -0.038290 -0.382569 -0.008850
			CHANNELS 3 Zrotation Yrotation Xrotation
			JOINT RightFoot
			{
				OFFSET 0.015774 -0.398415 -0.042312
				CHANNELS 3 Zrotation Yrotation Xrotation
				JOINT RightToe
				{
					OFFSET -0.025372 -0.048144 0.123348
					CHANNELS 3 Zrotation Yrotation Xrotation
					End Site
					{
						OFFSET 0.000000 0.000000 0.000000
					}
				}
			}
		}
	}
	JOINT Spine
	{
		OFFSET -0.002533 0.108963 -0.026696
		CHANNELS 3 Zrotation Yrotation Xrotation
		JOINT Spine1
		{
			OFFSET 0.005487 0.135180 0.001092
			CHANNELS 3 Zrotation Yrotation Xrotation
			JOINT Spine2
			{
				OFFSET 0.001457 0.052922 0.025425
				CHANNELS 3 Zrotation Yrotation Xrotation
				JOINT Neck
				{
					OFFSET -0.002778 0.213870 -0.042857
					CHANNELS 3 Zrotation Yrotation Xrotation
					JOINT Head
					{
						OFFSET 0.005152 0.064970 0.051349
						CHANNELS 3 Zrotation Yrotation Xrotation
						End Site
						{
							OFFSET 0.000000 0.000000 0.000000
						}
					}
				}
				JOINT LeftShoulder
				{
					OFFSET 0.078845 0.121749 -0.034090
					CHANNELS 3 Zrotation Yrotation Xrotation
					JOINT LeftArm
					{
						OFFSET 0.090977 0.030469 -0.008868
						CHANNELS 3 Zrotation Yrotation Xrotation
						JOINT LeftForeArm
						{
							OFFSET 0.259612 -0.012772 -0.027456
							CHANNELS 3 Zrotation Yrotation Xrotation
							JOINT LeftHand
							{
								OFFSET 0.249234 0.008986 -0.001171
								CHANNELS 3 Zrotation Yrotation Xrotation
								End Site
								{
									OFFSET 0.000000 0.000000 0.000000
								}
							}
						}
					}
				}
				JOINT RightShoulder
				{
					OFFSET -0.081759 0.118833 -0.038615
					CHANNELS 3 Zrotation Yrotation Xrotation
					JOINT RightArm
					{
						OFFSET -0.096012 0.032551 -0.009143
						CHANNELS 3 Zrotation Yrotation Xrotation
						JOINT RightForeArm
						{
							OFFSET -0.253742 -0.013329 -0.021401
							CHANNELS 3 Zrotation Yrotation Xrotation
							JOINT RightHand
							{
								OFFSET -0.255298 0.007772 -0.005559
								CHANNELS 3 Zrotation Yrotation Xrotation
								End Site
								{
									OFFSET 0.000000 0.000000 0.000000
								}
							}
						}
					}
				}
			}
		}
	}
}
MOTION
Frames: 10
Frame Time: 0.050000
-0.018307 0.954628 -0.016714 2.056973 -12.069839 6.155260 7.049311 -0.194347 -7.224776 -2.479975 0.356909 -2.747719 -3.249144 -0.707421 17.176309 0.000000 0.000000 0.000000 -11.917360 0.884319 -11.339565 5.486750 -0.408482 3.179843 -9.515633 -23.378613 24.204300 0.000000 0.000000 0.000000 8.778106 -2.185800 21.145803 -5.316949 1.770264 -15.249570 -2.295936 9.672878 28.335961 22.405041 -12.914845 -21.692284 0.000000 0.000000 0.000000 -10.572738 -21.287537 8.797635 -40.854988 -18.520849 -0.979264 -106.148420 -81.350105 103.319790 0.000000 0.000000 0.000000 18.787734 7.955384 4.102189 24.518013 29.585546 0.629162 -32.462023 70.719599 -18.907220 0.000000 0.000000 0.000000 
-0.019083 0.954604 -0.015974 1.973216 -11.976600 6.381044 7.366319 -0.177628 -7.295670 -2.793349 0.393447 -2.951644 -3.309935 -0.758285 17.258516 0.000000 0.000000 0.000000 -11.818707 0.885857 -11.233047 5.425640 -0.404260 2.591010 -9.516835 -23.370759 24.638941 0.000000 0.000000 0.000000 8.687194 -2.189758 21.294492 -5.340037 1.762346 -15.845275 -2.206636 9.497463 28.717326 22.277477 -12.898926 -21.614790 0.000000 0.000000 0.000000 -10.647463 -21.438879 8.915063 -41.476957 -19.502622 -0.684486 -92.216101 -82.105371 89.953793 0.000000 0.000000 0.000000 18.193727 7.034376 3.552733 24.434731 28.695127 0.446741 -32.044401 74.499274 -20.001267 0.000000 0.000000 0.000000 
-0.020059 0.954823 -0.014921 1.802755 -12.011858 6.671203 7.657209 -0.160485 -7.338406 -2.896429 0.407244 -3.206458 -3.300416 -0.716017 17.371728 0.000000 0.000000 0.000000 -11.651582 0.893071 -11.026868 5.337506 -0.394872 1.691403 -9.309078 -23.111965 25.206680 0.000000 0.000000 0.000000 8.767653 -2.203015 21.138694 -5.432919 1.784466 -16.021877 -2.324745 9.229845 28.822396 22.229480 -13.087940 -21.086496 0.000000 0.000000 0.000000 -10.596030 -21.260748 8.885380 -42.075815 -20.020899 -0.505918 -82.103802 -82.034352 79.991574 0.000000 0.000000 0.000000 18.023666 6.495402 3.182314 23.896617 27.690080 0.227235 -32.263656 78.873903 -22.022014 0.000000 0.000000 0.000000 
-0.021258 0.955048 -0.013562 1.618077 -12.140487 6.944951 7.986385 -0.135475 -7.236310 -3.032812 0.426479 -3.602444 -3.254621 -0.625002 17.516638 0.000000 0.000000 0.000000 -11.489589 0.904733 -10.974001 5.357724 -0.392616 0.988415 -9.260281 -23.073744 25.989815 0.000000 0.000000 0.000000 8.614253 -2.156237 20.871505 -5.397947 1.760234 -16.334252 -2.282013 9.393341 29.171434 22.189750 -13.322987 -20.409629 0.000000 0.000000 0.000000 -10.586673 -21.071231 8.804650 -42.559311 -20.337483 -0.419724 -78.288473 -81.772898 76.063790 0.000000 0.000000 0.000000 17.583578 5.559263 2.691057 23.579930 26.846882 0.030268 -31.734675 83.265577 -23.372102 0.000000 0.000000 0.000000 
-0.022661 0.955402 -0.011940 1.385132 -12.269081 6.942142 8.335343 -0.102751 -6.959151 -3.107661 0.436280 -3.718003 -3.209541 -0.558219 17.569618 0.000000 0.000000 0.000000 -11.144683 0.904970 -10.664629 5.257643 -0.381989 0.559555 -9.155670 -22.958185 26.337648 0.000000 0.000000 0.000000 8.526244 -2.132693 20.846994 -5.603243 1.819603 -16.379758 -2.196104 9.215450 29.210738 22.027844 -13.298067 -20.237940 0.000000 0.000000 0.000000 -10.404925 -20.865051 8.727169 -43.081461 -20.169410 -0.461581 -78.132838 -81.505011 75.787560 0.000000 0.000000 0.000000 17.245480 4.997021 2.321374 23.341584 25.986522 -0.105118 -21.095113 87.446493 -15.148829 0.000000 0.000000 0.000000 
-0.024127 0.955737 -0.010208 1.101279 -12.585304 6.864274 8.682494 -0.063261 -6.586641 -3.102616 0.437987 -3.746244 -3.062384 -0.385618 17.562230 0.000000 0.000000 0.000000 -10.943824 0.906943 -10.315975 5.305698 -0.379948 0.306006 -8.454303 -22.124230 26.292070 0.000000 0.000000 0.000000 8.177446 -2.045324 20.807621 -5.483081 1.767303 -16.659616 -2.253890 9.422124 29.396983 22.023699 -13.349140 -20.130499 0.000000 0.000000 0.000000 -10.016860 -20.284810 8.416024 -43.766917 -20.008458 -0.519468 -79.806444 -81.238129 77.236206 0.000000 0.000000 0.000000 17.121457 4.202271 1.904585 22.635722 25.341985 -0.276688 121.970374 89.044890 126.295941 0.000000 0.000000 0.000000 
-0.025519 0.956040 -0.008493 0.790625 -12.781318 6.735023 9.049949 -0.025446 -6.113786 -3.082697 0.438568 -3.882545 -2.981998 -0.291622 17.558480 0.000000 0.000000 0.000000 -10.683212 0.903087 -10.014206 5.189477 -0.368985 0.174888 -7.723776 -21.254562 26.626466 0.000000 0.000000 0.000000 8.048361 -2.004871 20.726602 -5.679817 1.818589 -16.808523 -2.231717 9.247967 29.599031 21.942822 -13.477366 -19.755511 0.000000 0.000000 0.000000 -9.705876 -19.887565 8.247274 -44.222293 -19.604285 -0.674218 -83.295549 -81.089325 80.698912 0.000000 0.000000 0.000000 16.707865 3.919784 1.688362 21.760775 24.917412 -0.399827 139.372012 87.077646 142.412803 0.000000 0.000000 0.000000 
-0.026748 0.956368 -0.006916 0.618987 -13.140717 6.652983 9.253490 0.002397 -5.720343 -3.070970 0.440706 -3.985924 -2.824416 -0.095770 17.599709 0.000000 0.000000 0.000000 -10.499870 0.906518 -9.810127 5.176154 -0.362743 0.028190 -7.359818 -20.854226 26.738828 0.000000 0.000000 0.000000 7.732202 -1.922285 20.677736 -5.720734 1.817423 -16.992678 -2.436130 9.383217 29.667784 21.825582 -13.537334 -19.352709 0.000000 0.000000 0.000000 -9.299829 -19.418880 8.002025 -44.725867 -19.480771 -0.717944 -86.235257 -80.681209 83.310147 0.000000 0.000000 0.000000 16.393984 3.584363 1.495969 21.069953 24.925132 -0.455509 148.974551 86.502265 152.056043 0.000000 0.000000 0.000000 
-0.027679 0.956677 -0.005595 0.484711 -13.243012 6.538752 9.419172 0.020855 -5.460048 -3.060514 0.440014 -3.949222 -2.789420 -0.053055 17.610804 0.000000 0.000000 0.000000 -10.382273 0.899079 -9.513106 5.032717 -0.351813 -0.121056 -6.786498 -20.164119 26.889041 0.000000 0.000000 0.000000 7.573022 -1.875870 20.522029 -5.686039 1.801963 -17.066577 -2.799342 9.344444 29.610399 21.977086 -13.713168 -19.187304 0.000000 0.000000 0.000000 -8.821563 -19.150473 7.835606 -44.854106 -19.169896 -0.830520 -89.983459 -80.538542 86.980437 0.000000 0.000000 0.000000 16.143008 3.456184 1.405991 20.048265 25.217514 -0.499127 158.043738 87.889511 161.953324 0.000000 0.000000 0.000000 
-0.028284 0.956967 -0.004711 0.496816 -13.159712 6.378500 9.447013 0.025666 -5.230476 -3.085358 0.442685 -3.972035 -2.861428 -0.129304 17.671556 0.000000 0.000000 0.000000 -10.224893 0.883640 -9.177102 4.772683 -0.336252 -0.275954 -6.752460 -20.114658 26.962110 0.000000 0.000000 0.000000 7.365998 -1.823692 20.314018 -5.989683 1.908964 -16.696667 -3.069284 8.868371 29.221039 22.135271 -13.887118 -19.018192 0.000000 0.000000 0.000000 -8.168738 -18.860683 7.671598 -44.884714 -18.729318 -0.951612 -97.344654 -80.258357 94.337601 0.000000 0.000000 0.000000 15.853183 3.443060 1.300875 19.193924 25.834882 -0.465186 -39.341866 89.334102 -34.615259 0.000000 0.000000 0.000000 
